
[url=http://www.imdb.com/title/tt0383574/][img]http://img545.imageshack.us/img545/1896/imdb1t.png[/img][/url]
[color=red]StoryLine[/color][color=green]Once again we're plunged into the world of sword fights and "savvy" pirates. Captain Jack Sparrow is reminded he owes a debt to Davy Jones, who captains the flying Dutchman, a ghostly ship, with a crew from hell. Facing the "locker" Jack must find the heart of Davy Jones but to save himself he must get the help of quick-witted Will Turner and Elizabeth Swan. If that's not complicated enough, Will and Elizabeth are sentenced to hang, unless will can get Lord Cutler Beckett Jack's compass, Will is forced to join another crazy adventure with Jack.[/color]
[img]http://www.rexwallpapers.com/images/wallpapers/movie/pirates-of-the-caribbean-2/pirates_of_the_caribbean_2_3.jpg[/img]
[img]http://img402.imageshack.us/img402/71/dirtyhd.png[/img]
Format                           : Matroska
File size                        : 3.40 GiB
Duration                         : 2h 30mn
Overall bit rate                 : 3 229 Kbps
Movie name                       : Pirates of the Caribbean 2 BRRip 1080p 6ch Ac3^^Dual-Audio-Eng-Hindi ^^TAKRIAN^^
Encoded date                     : UTC 2012-02-12 06:55:50
Writing application              : mkvmerge v4.4.0 ('Die Wiederkehr') built on Oct 31 2010 21:52:48
Writing library                  : libebml v1.0.0 + libmatroska v1.0.0

Video
ID                               : 1
Format                           : AVC
Format/Info                      : Advanced Video Codec
Format profile                   : High@L4.0
Format settings, CABAC           : Yes
Format settings, ReFrames        : 4 frames
Muxing mode                      : Header stripping
Codec ID                         : V_MPEG4/ISO/AVC
Duration                         : 2h 30mn
Bit rate                         : 2 397 Kbps
Width                            : 1 920 pixels
Height                           : 800 pixels
Display aspect ratio             : 2.40:1
Frame rate                       : 23.976 fps
Color space                      : YUV
Chroma subsampling               : 4:2:0
Bit depth                        : 8 bits
Scan type                        : Progressive
Bits/(Pixel*Frame)               : 0.065
Stream size                      : 2.52 GiB (74%)
Title                            : ^^TAKRIAN^^^DIRTYHD^^
Writing library                  : FASM Quality Enhancer Bitrate Squeezer 1.2 (c)2010 Fachman
Language                         : English

Audio #1
ID                               : 2
Format                           : AC-3
Format/Info                      : Audio Coding 3
Mode extension                   : CM (complete main)
Muxing mode                      : Header stripping
Codec ID                         : A_AC3
Duration                         : 2h 30mn
Bit rate mode                    : Constant
Bit rate                         : 384 Kbps
Channel(s)                       : 6 channels
Channel positions                : Front: L C R, Side: L R, LFE
Sampling rate                    : 48.0 KHz
Bit depth                        : 16 bits
Compression mode                 : Lossy
Stream size                      : 414 MiB (12%)
Title                            : ^^TAKRIAN^^^DIRTYHD^^
Language                         : English

Audio #2
ID                               : 3
Format                           : AC-3
Format/Info                      : Audio Coding 3
Mode extension                   : CM (complete main)
Muxing mode                      : Header stripping
Codec ID                         : A_AC3
Duration                         : 2h 30mn
Bit rate mode                    : Constant
Bit rate                         : 384 Kbps
Channel(s)                       : 6 channels
Channel positions                : Front: L C R, Side: L R, LFE
Sampling rate                    : 48.0 KHz
Bit depth                        : 16 bits
Compression mode                 : Lossy
Stream size                      : 414 MiB (12%)
Title                            : ^^TAKRIAN^^^DIRTYHD^^
Language                         : Hindi

Text
ID                               : 4
Format                           : UTF-8
Codec ID                         : S_TEXT/UTF8
Codec ID/Info                    : UTF-8 Plain Text


English 
http://img860.imageshack.us/img860/4937/vlcsnap2012021122h28m32.png 
http://img815.imageshack.us/img815/9461/vlcsnap2012021122h29m04.png 
http://img705.imageshack.us/img705/7079/vlcsnap2012021122h28m25.png 
http://img193.imageshack.us/img193/392/vlcsnap2012021122h29m03.png 
http://img27.imageshack.us/img27/1697/vlcsnap2012021122h28m43.png 
http://img18.imageshack.us/img18/8955/vlcsnap2012021122h29m35.png 
http://img802.imageshack.us/img802/4421/vlcsnap2012021122h28m19.png

 
http://img832.imageshack.us/img832/8536/submiticon.png[/img][/url]

 
http://img835.imageshack.us/img835/9963/facebookbuttono.png[/img][/url]